<?xml version="1.0" encoding="utf-8"?>
<!-- Generator: Adobe Illustrator 21.0.0, SVG Export Plug-In . SVG Version: 6.00 Build 0)  -->
<svg version="1.1" id="Laag_1" xmlns="http://www.w3.org/2000/svg" xmlns:xlink="http://www.w3.org/1999/xlink" x="0px" y="0px"
	 viewBox="0 0 194.8 194.8" style="enable-background:new 0 0 194.8 194.8;" xml:space="preserve">
<style type="text/css">
	.st0{fill:#FFFFFF;}
</style>
<title>ham</title>
<g>
	<path class="st0" d="M29.9,5.1l159.8,159.8c6.8,6.8,6.8,17.9,0,24.7l0,0c-6.8,6.8-17.9,6.8-24.7,0L5.1,29.9C-1.7,23-1.7,12,5.1,5.1
		l0,0C12-1.7,23-1.7,29.9,5.1z"/>
</g>
<title>ham</title>
<g>
	<path class="st0" d="M189.7,29.9L29.9,189.7c-6.8,6.8-17.9,6.8-24.7,0l0,0c-6.8-6.8-6.8-17.9,0-24.7L164.9,5.1
		c6.8-6.8,17.9-6.8,24.7,0l0,0C196.5,12,196.5,23,189.7,29.9z"/>
</g>
</svg>
