<?xml version="1.0" encoding="utf-8"?>
<!-- Generator: Adobe Illustrator 21.0.0, SVG Export Plug-In . SVG Version: 6.00 Build 0)  -->
<svg version="1.1" id="Laag_1" xmlns="http://www.w3.org/2000/svg" xmlns:xlink="http://www.w3.org/1999/xlink" x="0px" y="0px"
	 viewBox="0 0 232.4 212.4" style="enable-background:new 0 0 232.4 212.4;" xml:space="preserve">
<style type="text/css">
	.st0{fill:#D4D4D4;}
	.st1{fill:#FFFFFF;}
</style>
<g>
	<polygon class="st0" points="121.2,129.3 136.1,144.2 130.5,149.9 115.5,134.9 100.6,149.9 95,144.2 109.9,129.3 84.6,104 
		46.7,141.9 116.2,211.4 185.1,142.6 146.5,104 	"/>
	<path class="st0" d="M115.5,123.6l31-31l44.2,44.2l24.2-24.2l-98.7-98.7l-98.7,98.7L41,136.2l43.6-43.6L115.5,123.6z M115.8,62.2
		l5.7,5.7L96.2,93.1l-5.7-5.7L115.8,62.2z"/>
	<rect x="39.9" y="136.7" transform="matrix(0.707 -0.7072 0.7072 0.707 -87.1257 71.0625)" class="st1" width="4.6" height="8"/>
</g>
</svg>
