<?xml version="1.0" encoding="utf-8"?>
<!-- Generator: Adobe Illustrator 21.0.0, SVG Export Plug-In . SVG Version: 6.00 Build 0)  -->
<svg version="1.1" id="Laag_1" xmlns="http://www.w3.org/2000/svg" xmlns:xlink="http://www.w3.org/1999/xlink" x="0px" y="0px"
	 viewBox="0 0 232.4 212.4" style="enable-background:new 0 0 232.4 212.4;" xml:space="preserve">
<style type="text/css">
	.st0{fill:#757575;}
	.st1{fill:#FFFFFF;}
</style>
<g>
	<path class="st0" d="M122,130.1l13.2,13.2c0.5,0.5,0.5,1.2,0,1.7l-3.9,3.9c-0.5,0.5-1.2,0.5-1.7,0l-13.2-13.2
		c-0.5-0.5-1.2-0.5-1.7,0L101.5,149c-0.5,0.5-1.2,0.5-1.7,0l-3.9-3.9c-0.5-0.5-0.5-1.2,0-1.7l13.2-13.2c0.5-0.5,0.5-1.2,0-1.7
		l-23.6-23.6c-0.5-0.5-1.2-0.5-1.7,0L47.5,141c-0.5,0.5-0.5,1.2,0,1.7l67.8,67.8c0.5,0.5,1.2,0.5,1.7,0l67.2-67.2
		c0.5-0.5,0.5-1.2,0-1.7l-36.9-36.9c-0.5-0.5-1.2-0.5-1.7,0L122,128.4C121.6,128.9,121.6,129.7,122,130.1z"/>
	<path class="st0" d="M116.4,122.8l29.3-29.3c0.5-0.5,1.2-0.5,1.7,0l42.5,42.5c0.5,0.5,1.2,0.5,1.7,0l22.4-22.4
		c0.5-0.5,0.5-1.2,0-1.7l-97-97c-0.5-0.5-1.2-0.5-1.7,0l-97,97c-0.5,0.5-0.5,1.2,0,1.7l21.8,21.8c0.5,0.5,1.2,0.5,1.7,0l41.8-41.8
		c0.5-0.5,1.2-0.5,1.7,0l29.3,29.3C115.2,123.2,115.9,123.2,116.4,122.8z M116.7,63l3.9,3.9c0.5,0.5,0.5,1.2,0,1.7L97.1,92.2
		c-0.5,0.5-1.2,0.5-1.7,0l-3.9-3.9c-0.5-0.5-0.5-1.2,0-1.7L115,63C115.4,62.5,116.2,62.5,116.7,63z"/>
	<path class="st1" d="M38.6,140.4l3.9,3.9c0.5,0.5,1.2,0.5,1.7,0l1.6-1.6c0.5-0.5,0.5-1.2,0-1.7l-3.9-3.9c-0.5-0.5-1.2-0.5-1.7,0
		l-1.6,1.6C38.1,139.1,38.1,139.9,38.6,140.4z"/>
</g>
</svg>
