<?xml version="1.0" encoding="utf-8"?>
<!-- Generator: Adobe Illustrator 21.0.0, SVG Export Plug-In . SVG Version: 6.00 Build 0)  -->
<svg version="1.1" id="Laag_1" xmlns="http://www.w3.org/2000/svg" xmlns:xlink="http://www.w3.org/1999/xlink" x="0px" y="0px"
	 viewBox="0 0 583.4 533.2" style="enable-background:new 0 0 583.4 533.2;" xml:space="preserve">
<style type="text/css">
	.st0{fill:#757575;}
	.st1{fill:#FFFFFF;}
</style>
<g>
	<path class="st0" d="M306.4,317.1l33.4,33.4c1.3,1.3,1.3,3,0,4.3l-9.9,9.9c-1.3,1.3-3,1.3-4.3,0l-33.4-33.4c-1.3-1.3-3-1.3-4.3,0
		l-33.4,33.6c-1.3,1.3-3,1.3-4.3,0l-9.9-9.9c-1.3-1.3-1.3-3,0-4.3l33.4-33.4c1.3-1.3,1.3-3,0-4.3l-59.6-59.6c-1.3-1.3-3-1.3-4.3,0
		l-91.7,91.2c-1.3,1.3-1.3,3,0,4.3l171.3,171.3c1.3,1.3,3,1.3,4.3,0l169.8-169.8c1.3-1.3,1.3-3,0-4.3l-93.3-93.3
		c-1.3-1.3-3-1.3-4.3,0l-59.6,59.9C305.4,314.1,305.4,316.1,306.4,317.1z"/>
	<path class="st0" d="M292.3,298.6l74-74c1.3-1.3,3-1.3,4.3,0L478,332c1.3,1.3,3,1.3,4.3,0l56.6-56.6c1.3-1.3,1.3-3,0-4.3
		L293.8,25.9c-1.3-1.3-3-1.3-4.3,0L44.4,271.1c-1.3,1.3-1.3,3,0,4.3l55.1,55.1c1.3,1.3,3,1.3,4.3,0l105.6-105.6c1.3-1.3,3-1.3,4.3,0
		l74,74C289.3,299.6,291,299.6,292.3,298.6z M293.1,147.5l9.9,9.9c1.3,1.3,1.3,3,0,4.3l-59.4,59.6c-1.3,1.3-3,1.3-4.3,0l-9.9-9.9
		c-1.3-1.3-1.3-3,0-4.3l59.4-59.6C289.8,146.2,291.8,146.2,293.1,147.5z"/>
	<path class="st1" d="M95.7,343.1l9.9,9.9c1.3,1.3,3,1.3,4.3,0l4-4c1.3-1.3,1.3-3,0-4.3l-9.9-9.9c-1.3-1.3-3-1.3-4.3,0l-4,4
		C94.4,339.8,94.4,341.9,95.7,343.1z"/>
</g>
</svg>
