<svg id="Laag_1" data-name="Laag 1" xmlns="http://www.w3.org/2000/svg" viewBox="0 0 794 373"><defs><style>.cls-1{fill:#919191;}</style></defs><title>tmlogogrijs</title><path class="cls-1" d="M762.76,260.64,641.91,199a98.88,98.88,0,0,0-113.26,16.58l-59.16,56.53a101,101,0,0,1-140.13-.59h0a98.88,98.88,0,0,1-1-140.83l86.09-86.09a26.24,26.24,0,0,0,.4-36.71C406.11-1.26,390.25-2.32,380,5.08L24.81,262.24a61.18,61.18,0,0,0-7.38,92.82h0a61.18,61.18,0,0,0,86.52,0l49.24-49.21a98.88,98.88,0,0,1,138.8-1l18.81,18.27a127.43,127.43,0,0,0,176.84.74l21.09-20.15a98.88,98.88,0,0,1,138.22,1.57l48.25,48.25a58.15,58.15,0,0,0,82.24,0h0A58.15,58.15,0,0,0,762.76,260.64Z"/><path class="cls-1" d="M380,223.17h0a34.1,34.1,0,0,1,1.64-49.76l95.58-83.74a23.77,23.77,0,0,1,32.47,1.07h0a23.77,23.77,0,0,1,1.54,31.93l-80.8,98.08A34.1,34.1,0,0,1,380,223.17Z"/></svg>